<svg width="24" height="25" viewBox="0 0 24 25" fill="none" xmlns="http://www.w3.org/2000/svg">
<path d="M3.11877 19.1124L2.52051 18.6601H2.52051L3.11877 19.1124ZM4.42712 15.385L3.67712 15.3759V15.385H4.42712ZM4.45458 13.1314L5.20458 13.1405V13.1314H4.45458ZM20.8882 19.1305L21.4954 18.6903L21.4954 18.6903L20.8882 19.1305ZM19.6291 15.385L18.8791 15.3754V15.385H19.6291ZM19.6566 13.2431L20.4066 13.2527V13.2431H19.6566ZM3.11877 19.1124L3.71703 19.5647C4.44923 18.5963 5.17712 17.1497 5.17712 15.385H4.42712H3.67712C3.67712 16.7309 3.11983 17.8674 2.52051 18.6601L3.11877 19.1124ZM4.42712 15.385L5.17707 15.3942L5.20453 13.1405L4.45458 13.1314L3.70464 13.1223L3.67718 15.3759L4.42712 15.385ZM20.8882 19.1305L21.4954 18.6903C20.9212 17.8983 20.3791 16.7506 20.3791 15.385H19.6291H18.8791C18.8791 17.1513 19.5778 18.6008 20.281 19.5708L20.8882 19.1305ZM19.6291 15.385L20.379 15.3946L20.4065 13.2527L19.6566 13.2431L18.9066 13.2335L18.8792 15.3754L19.6291 15.385ZM19.6566 13.2431H20.4066C20.4066 8.58346 16.6462 4.8 12 4.8V5.55V6.3C15.811 6.3 18.9066 9.40515 18.9066 13.2431H19.6566ZM20.43 20.175V20.925C21.0584 20.925 21.462 20.4818 21.6288 20.088C21.7952 19.6952 21.8238 19.1433 21.4954 18.6903L20.8882 19.1305L20.281 19.5708C20.254 19.5335 20.2504 19.5031 20.2501 19.4967C20.2498 19.492 20.2504 19.4963 20.2476 19.5028C20.2446 19.51 20.2476 19.4969 20.2736 19.4764C20.3045 19.452 20.3606 19.425 20.43 19.425V20.175ZM4.45458 13.1314H5.20458C5.20458 9.35516 8.25036 6.3 12 6.3V5.55V4.8C7.41521 4.8 3.70458 8.53347 3.70458 13.1314H4.45458ZM3.57109 20.175V19.425C3.6424 19.425 3.69927 19.4532 3.7298 19.4777C3.7551 19.4981 3.75699 19.5102 3.75319 19.501C3.7497 19.4925 3.75019 19.4864 3.74992 19.4902C3.74955 19.4957 3.74576 19.5267 3.71703 19.5647L3.11877 19.1124L2.52051 18.6601C2.17771 19.1135 2.20283 19.6746 2.36575 20.0711C2.52889 20.4681 2.9325 20.925 3.57109 20.925V20.175ZM20.43 20.175V19.425H3.57109V20.175V20.925H20.43V20.175ZM15.6 20.175H14.85C14.85 21.5799 13.6203 22.8 12 22.8V23.55V24.3C14.3561 24.3 16.35 22.498 16.35 20.175H15.6ZM12 23.55V22.8C10.3797 22.8 9.15 21.5799 9.15 20.175H8.4H7.65C7.65 22.498 9.64389 24.3 12 24.3V23.55ZM14.4 3.15H13.65C13.65 4.06127 12.9113 4.8 12 4.8V5.55V6.3C13.7397 6.3 15.15 4.8897 15.15 3.15H14.4ZM12 5.55V4.8C11.0887 4.8 10.35 4.06127 10.35 3.15H9.6H8.85C8.85 4.8897 10.2603 6.3 12 6.3V5.55ZM9.6 3.15H10.35C10.35 2.23873 11.0887 1.5 12 1.5V0.75V0C10.2603 0 8.85 1.4103 8.85 3.15H9.6ZM12 0.75V1.5C12.9113 1.5 13.65 2.23873 13.65 3.15H14.4H15.15C15.15 1.4103 13.7397 0 12 0V0.75Z" fill="white"/>
</svg>
